# xmcd
#
# Track frame offsets: 
#        150
#        12520
#        24666
#        35316
#        46179
#        56131
#        64934
#        75612
#        89171
#        98886
#        108215
#        118731
#        128697
#        139226
#        154120
#        165569
#        174979
#        186457
#        198893
#        212592
#        225433
#        236001
#        245887
#        260894
#        276943
#
# Disc length: 3927 seconds
#
# Revision: 0
# Processed by: cddbd v1.5.2PL0 Copyright (c) Steve Scherf et al.
# Submitted via: ExactAudioCopy v1.0b4
#
DISCID=680f5519
DTITLE=Etta James - The Very Best Of Etta James
DYEAR=1960
DGENRE=Soul
TTITLE0=Something's Got A Hold On Me
TTITLE1=How Big a Fool
TTITLE2=Fools We Mortal Be
TTITLE3=My One And Only
TTITLE4=That's All
TTITLE5=Fools Rush In
TTITLE6=Good Rockin' Daddy
TTITLE7=Dance With Me Henry
TTITLE8=Tough Lover
TTITLE9=Waiting For Charlie To Come Home
TTITLE10=Don't Blame Me
TTITLE11=Guess Again
TTITLE12=Nobody But You
TTITLE13=I Want To Be Loved
TTITLE14=You Can Count On Me
TTITLE15=It Could Happen To You
TTITLE16=My Dear
TTITLE17=It's Too Soon To Know
TTITLE18=Let Me Know
TTITLE19=Hey Henry
TTITLE20=A Lover's Mourn
TTITLE21=Prisoner Of Love
TTITLE22=One For My Baby
TTITLE23=Someone To Watch Over Me
TTITLE24=These Foolish Things
EXTD=
EXTT0=
EXTT1=
EXTT2=
EXTT3=
EXTT4=
EXTT5=
EXTT6=
EXTT7=
EXTT8=
EXTT9=
EXTT10=
EXTT11=
EXTT12=
EXTT13=
EXTT14=
EXTT15=
EXTT16=
EXTT17=
EXTT18=
EXTT19=
EXTT20=
EXTT21=
EXTT22=
EXTT23=
EXTT24=
PLAYORDER=
